<svg width="160" height="40" viewBox="0 0 160 40" xmlns="http://www.w3.org/2000/svg" aria-label="MovieArcade logo">
  <defs>
    <filter id="glow" x="-20%" y="-20%" width="140%" height="140%">
      <feGaussianBlur stdDeviation="1.2" result="blur"/>
      <feMerge>
        <feMergeNode in="blur"/>
        <feMergeNode in="SourceGraphic"/>
      </feMerge>
    </filter>
  </defs>

  <g fill="#ff6a00" filter="url(#glow)">
    <polygon points="16,8 18.8,14.6 26,14.6 20.2,18.9 22.4,26 16,21.8 9.6,26 11.8,18.9 6,14.6 13.2,14.6"/>
    <polygon points="40,8 42.8,14.6 50,14.6 44.2,18.9 46.4,26 40,21.8 33.6,26 35.8,18.9 30,14.6 37.2,14.6"/>
    <polygon points="64,8 66.8,14.6 74,14.6 68.2,18.9 70.4,26 64,21.8 57.6,26 59.8,18.9 54,14.6 61.2,14.6"/>
    <polygon points="88,8 90.8,14.6 98,14.6 92.2,18.9 94.4,26 88,21.8 81.6,26 83.8,18.9 78,14.6 85.2,14.6"/>
    <polygon points="112,8 114.8,14.6 122,14.6 116.2,18.9 118.4,26 112,21.8 105.6,26 107.8,18.9 102,14.6 109.2,14.6"/>
  </g>
</svg>